<?xml version="1.0" encoding="UTF-8"?><svg id="Layer_1" xmlns="http://www.w3.org/2000/svg" viewBox="0 0 604.09 338"><defs><style>.cls-1{fill:#f7f5f5;}.cls-2{fill:#f7f3f2;}.cls-3,.cls-4,.cls-5,.cls-6{fill:#ad1804;}.cls-7{fill:#5b5352;}.cls-8{fill:#565252;}.cls-9{fill:#fff;}.cls-9,.cls-10,.cls-11,.cls-12,.cls-13,.cls-14,.cls-4,.cls-15,.cls-16,.cls-5,.cls-6{stroke-miterlimit:10;}.cls-9,.cls-10,.cls-11,.cls-12,.cls-15,.cls-5{stroke:#000;}.cls-9,.cls-10,.cls-16{stroke-width:2px;}.cls-10{fill:#050000;}.cls-11{fill:#5e5857;}.cls-11,.cls-12{stroke-width:4px;}.cls-12{fill:#f7eae8;}.cls-13{stroke:#f9f7f7;}.cls-13,.cls-14{fill:#fcf6f5;}.cls-14{stroke:#fcfafa;}.cls-4,.cls-6{stroke:#050000;}.cls-15{fill:#f9f7f7;}.cls-16{fill:none;stroke:#050505;}.cls-5,.cls-6{stroke-width:3px;}</style></defs><path class="cls-12" d="M158.83,323.2c0-9.21,112.16-107.92,112.16-107.92l-58.98-36.83-30.07,27.63s-122.58,90.77-129.52,107.87c-6.94,17.1,20.82,11.84,20.82,11.84l84.42-1.32L520.77,46.89c41.63-72.35-35.85-35.52-35.85-35.52-11.56-7.89-23.13-3.95-23.13-3.95,0,0-16.19,5.26-50.88,21.05s-115.64,81.56-115.64,81.56c-11.6-18.86-61.58,35.92-61.58,35.92,11.26,20.27-2.25,31.53-2.25,31.53l29.28,15.77s-15.77-13.51,13.51-18.02c0,0,38.29-11.26,40.54-33.79"/><path class="cls-5" d="M36.21,39.65l309.92,114.45S516.13,9.39,517.29,47.54L157.66,322.53s-26.62,3.9,89.03-89.5l23.13-18.42-58.98-36.83L7.3,69.91s12.72-31.57,28.91-30.26Z"/><line class="cls-9" x1="474.52" y1="15.32" x2="484.92" y2="11.38"/><line class="cls-11" x1="41.9" y1="36.25" x2="346.27" y2="149.89"/><polygon class="cls-5" points="379.97 156.62 600.85 176.35 586.97 190.82 292.08 223.71 379.97 156.62"/><polygon class="cls-2" points="292.09 224.32 381.11 156.02 387.95 156.46 300.17 223.43 292.09 224.32"/><polygon class="cls-15" points="347.58 155.6 39.31 40.19 40.27 36.89 348.53 152.29 347.58 155.6"/><path class="cls-8" d="M449.72,27.18s4.3-5.78,7.42-4.44,3.91,8.44,3.91,8.44l-8.6,3.56-2.74-7.56Z"/><path class="cls-8" d="M461.45,20.51s4.3-5.78,7.42-4.44,3.91,8.44,3.91,8.44l-8.6,3.56-2.74-7.56Z"/><path class="cls-8" d="M473.17,13.84s5.06-7.13,7.42-4.44c3.13,3.56,7.81,1.78,7.81,1.78l-12.5,10.22-2.74-7.56Z"/><polygon class="cls-7" points="395.78 69.01 391.34 72.36 388.14 66.88 392.58 63.53 395.78 69.01"/><polygon class="cls-7" points="387.86 75.01 383.42 78.37 380.22 72.89 384.66 69.53 387.86 75.01"/><polygon class="cls-7" points="379.74 81.04 375.3 84.39 372.1 78.91 376.54 75.56 379.74 81.04"/><polygon class="cls-7" points="372.19 87.01 367.75 90.36 364.55 84.88 368.99 81.53 372.19 87.01"/><polygon class="cls-7" points="364.68 92.65 360.24 96.01 357.04 90.52 361.48 87.17 364.68 92.65"/><polygon class="cls-7" points="357.28 98.16 352.85 101.52 349.65 96.03 354.08 92.68 357.28 98.16"/><polygon class="cls-7" points="349.41 103.62 344.97 106.97 341.77 101.49 346.21 98.14 349.41 103.62"/><polygon class="cls-7" points="341.36 109.63 336.93 112.98 333.73 107.5 338.16 104.15 341.36 109.63"/><polygon class="cls-7" points="334.2 114.95 329.76 118.31 326.56 112.82 331 109.47 334.2 114.95"/><polygon class="cls-7" points="327.34 120.01 322.9 123.36 319.7 117.88 324.14 114.53 327.34 120.01"/><polygon class="cls-7" points="319.77 125.81 315.33 129.16 312.13 123.68 316.57 120.33 319.77 125.81"/><polygon class="cls-7" points="236.5 198.25 232.06 201.61 228.86 196.12 233.29 192.77 236.5 198.25"/><polygon class="cls-7" points="229.77 203.87 225.33 207.22 222.13 201.74 226.57 198.38 229.77 203.87"/><polygon class="cls-7" points="221.97 209.76 217.54 213.11 214.34 207.63 218.77 204.28 221.97 209.76"/><polygon class="cls-7" points="214.11 215.77 209.67 219.12 206.47 213.64 210.91 210.29 214.11 215.77"/><polygon class="cls-7" points="206.02 221.59 201.58 224.94 198.38 219.46 202.82 216.11 206.02 221.59"/><polygon class="cls-7" points="198.99 227.59 194.55 230.94 191.35 225.46 195.79 222.11 198.99 227.59"/><polygon class="cls-7" points="191.28 233.61 186.84 236.96 183.64 231.48 188.08 228.13 191.28 233.61"/><polygon class="cls-7" points="183.7 239.43 179.26 242.79 176.06 237.3 180.5 233.95 183.7 239.43"/><polygon class="cls-7" points="175.71 245.46 171.28 248.81 168.08 243.33 172.51 239.98 175.71 245.46"/><path class="cls-6" d="M60.09,303.13L18.01,211.76l16.38-15.43s62.49,65.06,88.13,53.75"/><polygon class="cls-3" points="118.98 290.53 84.98 317.2 0 323.2 14.07 301.86 118.98 290.53"/><polygon class="cls-1" points="118.08 286.99 11.83 298.67 12.1 301.82 118.35 290.15 118.08 286.99"/><line class="cls-10" x1="11.83" y1="298.67" x2="118.08" y2="286.99"/><polygon class="cls-4" points="200.86 337.42 164.86 325.73 186.79 303.64 214.92 319.64 200.86 337.42"/><polygon class="cls-14" points="187.99 305.02 164.28 325.4 162.49 322.7 186.2 302.33 187.99 305.02"/><polygon class="cls-13" points="219.96 321.72 189.16 304.19 190.48 301.19 221.28 318.72 219.96 321.72"/><polyline class="cls-16" points="159.42 323.2 185.13 299.66 219.58 317.73"/><path class="cls-5" d="M355.25,122.29s-7.86-28.09,13.23-11.06c0,0,18.61,14.47,12.82-7.23-5.79-21.7,3.72-15.32,9.92-7.23s16.95,1.28,10.34-7.66c-6.62-8.94,1.24-20.43,9.1-8.09"/><path class="cls-5" d="M112.87,275.34s-7.05-29.04,11.88-11.44c0,0,16.7,14.96,11.5-7.48-5.2-22.44,3.34-15.84,8.91-7.48,5.57,8.36,15.22,1.32,9.28-7.92-5.94-9.24,1.11-21.12,8.16-8.36,0,0,13.71,9.26,11.37-6.5-2.34-15.76,1.41-17.07,10.78-6.57,9.38,10.51,10.31-4.73,8.91-8.14,0,0-6.8-21.8,8.91-7.62,0,0,13.36,9.46,9.38-7.62"/><path class="cls-5" d="M411.04,79.62s16.8,21.78,11.33-6.22c0,0-5.08-25.78,11.72-6.67,0,0,15.63,16.45,12.89-8,0,0-5.08-26.22,10.94-7.56"/></svg>