<?xml version="1.0" encoding="UTF-8"?><svg id="Layer_1" xmlns="http://www.w3.org/2000/svg" viewBox="0 0 364.44 355.15"><defs><style>.cls-1{fill:#c6bdbd;}.cls-2{fill:#514646;stroke:#000;stroke-miterlimit:10;}</style></defs><rect class="cls-2" x="18.67" y="172.34" width="333.3" height="182.3"/><rect class="cls-1" x="5.84" y="111.68" width="358.6" height="63.3"/><polygon points="92.78 175.68 35.81 175.68 14.44 112.34 67.14 112.34 92.78 175.68"/><polygon points="181.11 177.34 124.14 177.34 102.78 112.34 155.47 112.34 181.11 177.34"/><polygon points="273.61 177.34 216.64 177.34 195.28 111.66 247.97 111.66 273.61 177.34"/><polygon points="364.44 175.68 307.47 175.68 286.11 112.34 338.81 112.34 364.44 175.68"/><rect class="cls-1" x="2.26" y="25.75" width="358.6" height="57.33" transform="translate(-5.98 26.97) rotate(-8.36)"/><polygon points="114.44 94.01 60.91 100.68 26.11 47.34 82.03 40.68 114.44 94.01"/><polygon points="211.11 79.27 152.22 85.68 122.78 33.65 179.21 27.34 211.11 79.27"/><polygon points="301.11 65.68 251.7 72.34 221.11 20.68 282.29 12.34 301.11 65.68"/><polygon points="361.11 59.01 337.78 30.68 317.52 7.46 353.54 1.07 361.11 59.01"/></svg>